<svg xmlns="http://www.w3.org/2000/svg" viewBox="0 0 92 48"><defs><style>.cls-1{fill:#323232;}.cls-2,.cls-3{fill:#515151;}.cls-3{font-size:16px;font-family:Lato-Regular, Lato;}.cls-4{letter-spacing:-0.03em;}</style></defs><title>btn-next-inactive</title><g id="Layer_1" data-name="Layer 1"><path class="cls-1" d="M24,47A23,23,0,0,1,24,1H68a23,23,0,0,1,0,46Z"/><path class="cls-2" d="M68,2a22,22,0,0,1,0,44H24A22,22,0,0,1,24,2H68m0-2H24A24,24,0,0,0,0,24H0A24,24,0,0,0,24,48H68A24,24,0,0,0,92,24h0A24,24,0,0,0,68,0Z"/><text class="cls-3" transform="translate(25.1 29.3)">NEX<tspan class="cls-4" x="31.84" y="0">T</tspan></text></g></svg>