<svg xmlns="http://www.w3.org/2000/svg" viewBox="0 0 219 48"><defs><style>.cls-1{fill:#424242;}.cls-2{fill:#9e9e9e;}.cls-3{font-size:16px;fill:#e0e0e0;font-family:Lato-Regular, Lato;}</style></defs><title>btn-register-new-tissue-inactive</title><g id="Layer_1" data-name="Layer 1"><path class="cls-1" d="M24,46.65a22.65,22.65,0,0,1,0-45.3H195a22.65,22.65,0,1,1,0,45.3Z"/><path class="cls-2" d="M195,2.7a21.3,21.3,0,1,1,0,42.6H24A21.3,21.3,0,0,1,24,2.7H195M195,0H24A24,24,0,0,0,0,24H0A24,24,0,0,0,24,48H195a24,24,0,0,0,24-24h0A24,24,0,0,0,195,0Z"/><text class="cls-3" transform="translate(24.53 28.79)">REGISTER NEW TISSUE</text></g></svg>