<?xml version="1.0" encoding="utf-8"?>
<!-- Generator: Adobe Illustrator 24.0.2, SVG Export Plug-In . SVG Version: 6.00 Build 0)  -->
<svg version="1.1" id="Layer_1" xmlns="http://www.w3.org/2000/svg" xmlns:xlink="http://www.w3.org/1999/xlink" x="0px" y="0px"
	 viewBox="0 0 209 48" style="enable-background:new 0 0 209 48;" xml:space="preserve">
<style type="text/css">
	.st0{fill:#42A5F5;}
	.st1{fill:#323232;}
	.st2{font-family:'Lato-Regular';}
	.st3{font-size:16px;}
	.st4{fill:none;}
	.st5{font-family:'MyriadPro-Regular';}
	.st6{font-size:23px;}
</style>
<title>btn-copy-to-clipboard-active</title>
<g id="Layer_1_1_">
	<path class="st0" d="M24,46.7C11.5,46.7,1.3,36.5,1.3,24S11.5,1.3,24,1.3h161c12.5,0,22.7,10.2,22.7,22.7S197.5,46.7,185,46.7H24z"
		/>
	<path class="st0" d="M185,2.6c11.8,0,21.4,9.6,21.4,21.4s-9.6,21.4-21.4,21.4l0,0H24C12.2,45.4,2.6,35.8,2.6,24S12.2,2.6,24,2.6
		H185 M185,0H24C10.7,0,0,10.7,0,24l0,0c0,13.3,10.7,24,24,24h161c13.3,0,24-10.7,24-24l0,0C209,10.7,198.3,0,185,0z"/>
	<text transform="matrix(1 0 0 1 66.33 28.8)" class="st1 st2 st3"> </text>
	<rect x="24.5" y="17.1" class="st4" width="160" height="26.7"/>
	<text transform="matrix(1 0 0 1 67.4946 33.4238)" class="st5 st6">SUBMIT</text>
</g>
<rect x="24.6" y="13.1" class="st4" width="151.3" height="21.8"/>
</svg>
