<svg id="Layer_1" data-name="Layer 1" xmlns="http://www.w3.org/2000/svg" viewBox="0 0 96.04 96.04"><defs><style>.cls-1{fill:#424242;stroke:#42a5f5;stroke-width:2.04px;}.cls-1,.cls-2{stroke-miterlimit:10;}.cls-2{fill:none;stroke:#fff;stroke-width:1.04px;}.cls-3,.cls-4{fill:#fff;}.cls-4{font-size:18px;font-family:Lato-Regular, Lato;}.cls-5{letter-spacing:-0.01em;}.cls-6{letter-spacing:-0.02em;}</style></defs><title>btn-kidney-active</title><rect class="cls-1" x="1.02" y="1.02" width="94" height="94" rx="8.17"/><path class="cls-2" d="M49.3,21.83c1,1.05.09,9.4,1.13,10.45s7.91,1,7.91,1v2.09s-6.87-1-7.91,0,0,16.28,0,17.75c0,1.05-2.26,3.14-3.39,1.05s1.13-13.58-1.13-15.67c-1.09-1-7.35,0-7.35,0V36.45s6.21,0,7.35-2.09,0-11.48,0-12.53S48.26,20.79,49.3,21.83Z" transform="translate(-0.98 -0.98)"/><path class="cls-2" d="M37,24.44c5.07.07,6.29,4,6.27,6s-1.33,4.54-5.14,4.49c1.25,2,.6,3.27-.06,4.57,2.57.61,3.2,3.21,3.2,4.52s-.81,7.25-7.14,6.51S26,41.9,26.68,35.39,31.9,24.37,37,24.44Z" transform="translate(-0.98 -0.98)"/><path class="cls-2" d="M60,22.35c-5.07.07-6.29,4-6.27,6S55,32.86,58.83,32.8c-1.25,2-.6,3.27.06,4.57-2.57.61-3.2,3.21-3.2,4.52s.81,7.25,7.14,6.51S71,39.81,70.26,33.3,65,22.29,60,22.35Z" transform="translate(-0.98 -0.98)"/><path class="cls-3" d="M49.25,20.26c-1.07,1,.54,15.15-.53,16.19s-9.63,1-9.63,1l-.53,2.61s9.09-1.57,10.16-.52-.54,12.62-.54,14.1c0,1,1.07,3.13,3.21,0,1.07-2.09-.53-15.15.54-16.19s6.41,0,6.41,0V35.41s-5.34,0-6.41-1,.53-13,.53-14.1S50.32,19.22,49.25,20.26Z" transform="translate(-0.98 -0.98)"/><text class="cls-4" transform="translate(20.78 78.1)">Kidn<tspan class="cls-5" x="36.37" y="0">e</tspan><tspan class="cls-6" x="45.64" y="0">y</tspan></text></svg>