<svg xmlns="http://www.w3.org/2000/svg" viewBox="0 0 219 48"><defs><style>.cls-1{fill:#42a5f5;}.cls-2{font-size:16px;fill:#323232;font-family:Lato-Regular, Lato;}.cls-3{letter-spacing:-0.02em;}.cls-4{letter-spacing:0em;}.cls-5{letter-spacing:-0.01em;}.cls-6{letter-spacing:-0.03em;}</style></defs><title>btn-register-new-tissue-inactive</title><g id="Layer_1" data-name="Layer 1"><path class="cls-1" d="M24,46.65a22.65,22.65,0,0,1,0-45.3H195a22.65,22.65,0,1,1,0,45.3Z"/><path class="cls-1" d="M195,2.7a21.3,21.3,0,1,1,0,42.6H24A21.3,21.3,0,0,1,24,2.7H195M195,0H24A24,24,0,0,0,0,24H0A24,24,0,0,0,24,48H195a24,24,0,0,0,24-24h0A24,24,0,0,0,195,0Z"/><text class="cls-2" transform="translate(24.3 28.8)">R<tspan class="cls-3" x="10.02" y="0">E</tspan><tspan class="cls-4" x="19.02" y="0">GISTER NE</tspan><tspan class="cls-5" x="98.13" y="0">W</tspan><tspan class="cls-6" x="114.48" y="0"> </tspan><tspan x="118.1" y="0">TISSUE</tspan></text></g></svg>