<svg id="Layer_1" data-name="Layer 1" xmlns="http://www.w3.org/2000/svg" viewBox="0 0 96.04 96.04"><defs><style>.cls-1{fill:#424242;stroke-width:2.04px;}.cls-1,.cls-4{stroke:#515151;stroke-miterlimit:10;}.cls-2{font-size:18px;font-family:Lato-Regular, Lato;}.cls-2,.cls-5{fill:#515151;}.cls-3{letter-spacing:-0.03em;}.cls-4{fill:none;}</style></defs><title>btn-lung-inactive</title><rect class="cls-1" x="1.02" y="1.02" width="94" height="94" rx="4"/><text class="cls-2" transform="translate(28.94 78.1)"><tspan class="cls-3">L</tspan><tspan x="8.73" y="0">ung</tspan></text><path class="cls-4" d="M45.25,38.19c0,2-1.39,6.44-1.39,8.42s.93,4,0,6c-.56,1.21-5.84,2.69-9.25,4.95-2.16,1.43-2.16,2.86-3.23,2.48-2.78-1-4.63-8.92-2.78-19.82S41.55,20.35,44.33,22.33C45.94,23.48,46,26,45.75,29.91" transform="translate(-0.98 -0.98)"/><path class="cls-4" d="M52.46,38.19c0,2,1.39,6.44,1.39,8.42s-.93,4,0,6c.56,1.21,5.84,2.69,9.25,4.95,2.16,1.43,2.16,2.86,3.24,2.48,2.77-1,4.62-8.92,2.77-19.82s-13-19.82-15.73-17.84C51.77,23.48,51.72,26,52,29.91" transform="translate(-0.98 -0.98)"/><path class="cls-5" d="M62.2,42.08c1.27.31,6.32,5.06,6.64,4.74s-4.74-4.11-4.74-4.74,4,.24,4-.07-3.08-.56-3.08-1.2,2.84-2.53,2.53-2.53-1,.64-3.17,1.9c-1.94,1.11-5.69,1-6.28.53a7.4,7.4,0,0,1-1.67-3c-.05-.55,2.57-2.17,3.85-2.93,1.58-1,3.79-1,3.79-1.27s-3.48.32-3.79-.31,1.89-3.8,1.58-4.11-1,1.89-1.9,2.21-2.21-3.16-2.53-3.16,2.53,4.74,2.21,5.69S57.13,36,55.13,36a2,2,0,0,1-1-.3c-1.61-2.11-3.31-4.53-3.57-6.16C50.13,26,50.13,19,50.13,19H47.76s0,7-.45,10.54c-.26,1.63-2,4.05-3.57,6.16a2,2,0,0,1-1,.3c-2,0-4.27-1.34-4.54-2.15s2.53-5.69,2.21-5.69-1.58,3.48-2.53,3.16S36.32,28.8,36,29.12s1.9,3.47,1.59,4.11-3.8,0-3.8.31,2.21.32,3.8,1.27c1.27.76,3.89,2.38,3.84,2.93a7.4,7.4,0,0,1-1.67,3c-.59.42-4.34.58-6.28-.53-2.22-1.26-2.85-1.9-3.17-1.9s2.53,1.9,2.53,2.53-3.08.88-3.08,1.2,4-.56,4,.07-5.06,4.42-4.74,4.74,5.37-4.43,6.64-4.74a19.62,19.62,0,0,1,3.48-.3c0,.13.3,1.25-2.22,3.78-3.16,3.16-7,2.21-7,2.53s3.48.31,3.48.31-4,2.29-3.72,2.61,4-2,4-2-1.26,5.82-1,6,.83-6.74,4.19-8.19c.64.32-2.53,5.69-1.89,5.69s4.42-9.48,5.59-10.3c.41.82-.54,4.61-.22,4.61s.32-2.53,1-2.53,1.07,1,1.38.72-.75-.72-1.06-2.3a3.82,3.82,0,0,1-.12-1.41,6.44,6.44,0,0,1,.79-2.47c1.94-1.88,5-5,6.44-6.82,1.48,1.77,4.77,4.94,6.71,6.82a6.44,6.44,0,0,1,.79,2.47,4,4,0,0,1-.11,1.41c-.32,1.58-1.39,2-1.07,2.3s.75-.72,1.38-.72.63,2.53,1,2.53-.63-3.79-.22-4.61c1.17.82,5,10.3,5.59,10.3s-2.52-5.37-1.89-5.69c3.36,1.45,4,8.29,4.19,8.19s-1-6-1-6,3.68,2.31,4,2-3.72-2.61-3.72-2.61,3.48,0,3.48-.31-3.79.63-7-2.53c-2.52-2.53-2.26-3.65-2.22-3.78A19.54,19.54,0,0,1,62.2,42.08Z" transform="translate(-0.98 -0.98)"/></svg>