<svg xmlns="http://www.w3.org/2000/svg" viewBox="0 0 209 48"><defs><style>.cls-1{fill:#424242;}.cls-2{fill:#9e9e9e;}.cls-3{font-size:16px;fill:#e0e0e0;font-family:Lato-Regular, Lato;}.cls-4{letter-spacing:-0.01em;}.cls-5{letter-spacing:0em;}.cls-6{letter-spacing:-0.02em;}.cls-7{letter-spacing:-0.04em;}.cls-8{letter-spacing:-0.03em;}.cls-9{letter-spacing:-0.03em;}.cls-10{letter-spacing:-0.02em;}</style></defs><title>btn-copy-to-clipboard-inactive</title><g id="Layer_1" data-name="Layer 1"><path class="cls-1" d="M24,46.68A22.68,22.68,0,0,1,24,1.32H185a22.68,22.68,0,1,1,0,45.36Z"/><path class="cls-2" d="M185,2.64a21.36,21.36,0,1,1,0,42.72H24A21.36,21.36,0,0,1,24,2.64H185M185,0H24A24,24,0,0,0,0,24H0A24,24,0,0,0,24,48H185a24,24,0,0,0,24-24h0A24,24,0,0,0,185,0Z"/><text class="cls-3" transform="translate(24.34 28.8)"><tspan class="cls-4">C</tspan><tspan class="cls-5" x="10.46" y="0">O</tspan><tspan class="cls-6" x="23.27" y="0">P</tspan><tspan class="cls-7" x="32.64" y="0">Y</tspan><tspan class="cls-8" x="41.99" y="0"> </tspan><tspan class="cls-9" x="45.61" y="0">T</tspan><tspan x="54.54" y="0">O CLIPB</tspan><tspan class="cls-10" x="114.78" y="0">O</tspan><tspan x="127.29" y="0">ARD</tspan></text></g></svg>