<svg xmlns="http://www.w3.org/2000/svg" viewBox="0 0 164 48"><defs><style>.cls-1{fill:#42a5f5;}.cls-2{font-size:16px;fill:#323232;font-family:Lato-Regular, Lato;}.cls-3{letter-spacing:-0.03em;}.cls-4{letter-spacing:-0.03em;}</style></defs><title>btn-add-another-active</title><g id="Layer_1" data-name="Layer 1"><path class="cls-1" d="M24,47A23,23,0,0,1,24,1H140a23,23,0,0,1,0,46Z"/><path class="cls-1" d="M140,2a22,22,0,0,1,0,44H24A22,22,0,0,1,24,2H140m0-2H24A24,24,0,0,0,0,24H0A24,24,0,0,0,24,48H140a24,24,0,0,0,24-24h0A24,24,0,0,0,140,0Z"/><text class="cls-2" transform="translate(24.5 29.3)">ADD<tspan class="cls-3" x="35.17" y="0"> </tspan><tspan x="38.73" y="0">AN</tspan><tspan class="cls-4" x="61.77" y="0">O</tspan><tspan x="74.07" y="0">THER</tspan></text></g></svg>