<svg xmlns="http://www.w3.org/2000/svg" viewBox="0 0 120 48"><defs><style>.cls-1{fill:#42a5f5;}.cls-2{font-size:16px;fill:#323232;font-family:Lato-Regular, Lato;}.cls-3{letter-spacing:-0.02em;}.cls-4{letter-spacing:0em;}</style></defs><title>btn-register-active</title><g id="Layer_1" data-name="Layer 1"><path class="cls-1" d="M24,47A23,23,0,0,1,24,1H96a23,23,0,0,1,0,46Z"/><path class="cls-1" d="M96,2a22,22,0,0,1,0,44H24A22,22,0,0,1,24,2H96m0-2H24A24,24,0,0,0,0,24H0A24,24,0,0,0,24,48H96a24,24,0,0,0,24-24h0A24,24,0,0,0,96,0Z"/><text class="cls-2" transform="translate(23.21 29.3)">R<tspan class="cls-3" x="10.02" y="0">E</tspan><tspan class="cls-4" x="19.02" y="0">GISTER</tspan></text></g></svg>