<svg id="Layer_1" data-name="Layer 1" xmlns="http://www.w3.org/2000/svg" viewBox="0 0 96.04 96.04"><defs><style>.cls-1{fill:#424242;stroke-width:2.04px;}.cls-1,.cls-4,.cls-5{stroke:#515151;stroke-miterlimit:10;}.cls-2{font-size:18px;font-family:Lato-Regular, Lato;}.cls-2,.cls-6{fill:#515151;}.cls-3{letter-spacing:-0.01em;}.cls-4,.cls-5{fill:none;}.cls-5{stroke-width:2px;}</style></defs><title>btn-spleen-inactive</title><rect class="cls-1" x="1.02" y="1.02" width="94" height="94" rx="4"/><text class="cls-2" transform="translate(21.54 78.18)"><tspan class="cls-3">S</tspan><tspan x="9.57" y="0">pleen</tspan></text><path class="cls-4" d="M41.31,20.84c6.7-2.68,16,0,20,9s3,19-2,22-8,3-10,1-2-10-5-15-7-5-8-8S36.31,22.84,41.31,20.84Z" transform="translate(-0.98 -0.98)"/><path class="cls-5" d="M35.81,41.34s3.3-3.88,4-6c1-3,1.42-4.42,3-6" transform="translate(-0.98 -0.98)"/><path class="cls-4" d="M40.81,33.34a5.2,5.2,0,0,0,4-2" transform="translate(-0.98 -0.98)"/><path class="cls-4" d="M40,25.76c-.2,2.58,3.27,4,6.8,7.58,4,4,1.68,12.87,5.81,14.58" transform="translate(-0.98 -0.98)"/><path class="cls-5" d="M38.31,38.84c7,0,10-3,10-3" transform="translate(-0.98 -0.98)"/><path class="cls-4" d="M45.31,36.84c-.5-1.5,1-4,1-4" transform="translate(-0.98 -0.98)"/><path class="cls-5" d="M50.31,42.84c-4.33,1.08-8-4-8-4" transform="translate(-0.98 -0.98)"/><rect class="cls-6" x="35.56" y="37.36" width="3" height="4.6" transform="translate(45.71 -14.73) rotate(53.28)"/></svg>