<svg id="Layer_1" data-name="Layer 1" xmlns="http://www.w3.org/2000/svg" viewBox="0 0 96 95.95"><defs><style>.cls-1{fill:#424242;stroke-width:2.04px;}.cls-1,.cls-4,.cls-5{stroke:#515151;stroke-miterlimit:10;}.cls-2{font-size:18px;font-family:Lato-Regular, Lato;}.cls-2,.cls-6{fill:#515151;}.cls-3{letter-spacing:-0.02em;}.cls-4,.cls-5{fill:none;}.cls-4{stroke-width:1.21px;}.cls-5{stroke-width:1.04px;}</style></defs><title>btn-heart-inactive</title><rect class="cls-1" x="1.04" y="1.02" width="93.91" height="93.91" rx="4"/><text class="cls-2" transform="translate(25.54 77.61)"><tspan class="cls-3">H</tspan><tspan x="13.46" y="0">eart</tspan></text><path class="cls-4" d="M63.48,56.13c6.07-3.64-2.8-25.85-7.28-25.49C54,30.81,54,35,54,35a28,28,0,0,1,1-5.22c1-3.13,3-1.92,4.17-3.13s1.88-4.5-1.76-4.5-8.67,2.41-10.76,5.54c-1-4.17,8.35-5.21,8.35-5.21-2.09,0-4.88-5.19-10.95-1.55s-4.71,7.81-3.66,9.89c0,0-1,0-1-3.13-2.42,3.65-8.34,19.83,3.5,26C50.07,57.47,57.42,59.77,63.48,56.13Z" transform="translate(-1 -1.02)"/><path class="cls-5" d="M41.44,23c0-1.05-4.17-1.62-4.17.47a21.28,21.28,0,0,0,1,6.26" transform="translate(-1 -1.02)"/><path class="cls-6" d="M44.83,52a4.87,4.87,0,0,1-2.34-3.44,4.57,4.57,0,0,0,2.58,3Z" transform="translate(-1 -1.02)"/><path class="cls-6" d="M47.39,56.28a8.25,8.25,0,0,1-1.76-2.11,9.2,9.2,0,0,1-1-2.5,13,13,0,0,1-.09-5.2,13,13,0,0,0,.59,5.06,8.45,8.45,0,0,0,1.13,2.22A6.94,6.94,0,0,0,48,55.44Z" transform="translate(-1 -1.02)"/><path class="cls-6" d="M45.88,53.26a1.72,1.72,0,0,0,.9-.61,2.75,2.75,0,0,0,.49-1.14,8.34,8.34,0,0,0,0-2.73,8.69,8.69,0,0,1,.53,2.79,3.51,3.51,0,0,1-.34,1.49,2.67,2.67,0,0,1-1.18,1.17Z" transform="translate(-1 -1.02)"/><path class="cls-6" d="M63.9,46.14a3.74,3.74,0,0,1-.45,3.23,3.55,3.55,0,0,0,.06-3.1Z" transform="translate(-1 -1.02)"/><path class="cls-6" d="M64.31,42.92a6.51,6.51,0,0,1-.06,2,5.56,5.56,0,0,1-.7,1.87,7.14,7.14,0,0,1-2.82,2.61,6.9,6.9,0,0,0,2.45-2.81,4.92,4.92,0,0,0,.45-1.76,5.62,5.62,0,0,0-.14-1.78Z" transform="translate(-1 -1.02)"/><path class="cls-6" d="M63.82,45.44a1.91,1.91,0,0,0-.75-.38,1.67,1.67,0,0,0-.87.13,4.43,4.43,0,0,0-1.51,1.3A4.44,4.44,0,0,1,62,44.83a2,2,0,0,1,1.1-.39,2.51,2.51,0,0,1,1.17.3Z" transform="translate(-1 -1.02)"/></svg>