<svg id="Layer_1" data-name="Layer 1" xmlns="http://www.w3.org/2000/svg" viewBox="0 0 782.26 119.31"><defs><style>.cls-1,.cls-4{fill:#20558a;}.cls-2,.cls-3{fill:#616265;}.cls-3{font-size:46px;font-family:HelveticaNeueLTStd-Bd, Helvetica Neue LT Std;letter-spacing:-0.03em;}.cls-4{font-size:28px;font-family:HelveticaNeueLTStd-It, Helvetica Neue LT Std;font-style:italic;letter-spacing:-0.08em;}.cls-5{letter-spacing:0.01em;}.cls-6{letter-spacing:0.02em;}.cls-7{letter-spacing:0.01em;}.cls-8{letter-spacing:0.03em;}</style></defs><title>logo-nih</title><path class="cls-1" d="M150.42,119.31H140.8L174,59.94,141.37,0h9C158.9,0,164,11.31,164,11.31l28,49.18-28.84,48.07S158.33,119.31,150.42,119.31Z"/><path class="cls-2" d="M132.89,0H10.2A10.2,10.2,0,0,0,0,10.2v98.91a10.2,10.2,0,0,0,10.2,10.2H132.89l33.36-59.65ZM60.35,86.5H50.84L27.44,48.7h-.21V86.5H18.66V35.09h9.5L51.64,73h.14V35.09h8.57Zm19.08,0h-9V35.09h9Zm51.62,0h-9V63.31H98.65V86.5h-9V35.09h9V55.54h23.4V35.09h9Z"/><text class="cls-3" transform="translate(208.72 74.77)">National Institutes of Health</text><text class="cls-4" transform="translate(208.72 112.01)">T<tspan class="cls-5" x="13.78" y="0">u</tspan><tspan class="cls-6" x="29.62" y="0">r</tspan><tspan class="cls-7" x="39.4" y="0">ning Discove</tspan><tspan class="cls-8" x="202.97" y="0">r</tspan><tspan class="cls-7" x="213.08" y="0">y Into Health</tspan></text></svg>